<svg height="511.99999pt" viewBox="1 1 511.99999 511.99999" width="511.99999pt" xmlns="http://www.w3.org/2000/svg"><path d="m496 256c0 132.546875-107.453125 240-240 240s-240-107.453125-240-240 107.453125-240 240-240 240 107.453125 240 240zm0 0" fill="#999"/><g fill="#000"><path d="m256 0c-141.382812 0-256 114.617188-256 256s114.617188 256 256 256 256-114.617188 256-256c-.167969-141.316406-114.683594-255.832031-256-256zm0 480c-123.710938 0-224-100.289062-224-224s100.289062-224 224-224 224 100.289062 224 224c-.132812 123.65625-100.34375 223.867188-224 224zm0 0"/><path d="m380.449219 131.550781c-6.25-6.246093-16.378907-6.246093-22.625 0l-101.824219 101.824219-101.824219-101.824219c-6.136719-6.355469-16.269531-6.53125-22.625-.390625-6.355469 6.136719-6.53125 16.265625-.394531 22.621094.128906.132812.261719.265625.394531.394531l101.824219 101.824219-101.824219 101.824219c-6.355469 6.136719-6.53125 16.269531-.390625 22.625 6.136719 6.355469 16.265625 6.53125 22.621094.394531.132812-.128906.265625-.261719.394531-.394531l101.824219-101.824219 101.824219 101.824219c6.355469 6.136719 16.484375 5.960937 22.625-.394531 5.988281-6.199219 5.988281-16.03125 0-22.230469l-101.824219-101.824219 101.824219-101.824219c6.246093-6.246093 6.246093-16.375 0-22.625zm0 0"/></g></svg>