<svg class="icon" fill="#767676" style="width: 1em; height: 1em;vertical-align: middle;overflow: hidden;" viewBox="0 0 1024 1024" version="1.1" xmlns="http://www.w3.org/2000/svg"><path d="M576 256 448 256l0 256L256 512l256 256 256-256L576 512 576 256zM896 0 128 0C57.28 0 0 57.28 0 128l0 768c0 70.72 57.28 128 128 128l768 0c70.72 0 128-57.28 128-128L1024 128C1024 57.28 966.72 0 896 0zM896 640c0 35.328-28.672 64-64 64l-64 0c-55.36 0-64 64-64 64l0 64c0 35.328-28.672 64-64 64L384 896c-35.328 0-64-28.672-64-64l0-64c0 0-0.384-64-64-64L192 704c-35.328 0-64-28.672-64-64L128 192c0-35.328 28.672-64 64-64l640 0c35.328 0 64 28.672 64 64L896 640z" /></svg>