<svg fill="#767676" class="icon" style="width: 1em; height: 1em;vertical-align: middle;overflow: hidden;" viewBox="0 0 1024 1024" version="1.1" xmlns="http://www.w3.org/2000/svg"><path d="M317.427536 664.923902c41.231053 0 72.759117-15.70161 94.582145-47.111994 21.820981-31.407314 32.731472-75.988672 32.731472-133.7584 0-117.317962-40.182164-175.977967-120.5424-175.977967-42.139749 0-74.346265 15.742543-96.615455 47.227628-22.271236 31.478945-33.408901 77.06826-33.408901 136.76692C194.174398 607.311763 235.259118 664.923902 317.427536 664.923902zM321.038784 363.318726c32.958646 0 49.436946 41.136909 49.436946 123.405611 0 81.97092-16.930601 122.959449-50.791803 122.959449-34.465976 0-51.693336-39.794331-51.693336-119.397321C267.99059 405.643694 285.671275 363.318726 321.038784 363.318726zM895.316176 67.860551 125.771495 67.860551c-35.416628 0-64.128553 28.711925-64.128553 64.128553l0 757.678422c0 35.416628 28.711925 64.130599 64.128553 64.130599l769.544681 0c35.416628 0 64.128553-28.713972 64.128553-64.130599L959.444728 131.989103C959.444728 96.572476 930.732803 67.860551 895.316176 67.860551zM895.316176 890.5138 125.771495 890.5138 125.771495 131.139759l769.544681 0L895.316176 890.5138zM782.668583 631.847575c23.931039-22.052249 35.892465-50.453089 35.892465-85.202521 0-31.480992-9.894348-56.429197-29.680996-74.847685-19.789719-18.412348-46.766117-27.620058-80.928171-27.620058-10.536984 0-22.046109 0.522909-34.539654 1.557472l4.971222-72.616878 126.184911 0 0-59.251475L619.463524 313.866431l-13.094226 190.456726c23.928992-2.676969 45.072545-4.012384 63.431681-4.012384 49.666166 0 74.495668 17.895579 74.495668 53.68162 0 17.081027-5.833869 30.631648-17.494443 40.655955-11.663644 10.022261-27.806299 15.034415-48.419779 15.034415-27.392884 0-53.202713-7.274684-77.428464-21.829168l0 62.146409c22.86987 9.949606 50.936089 14.922874 84.200704 14.922874C726.234269 664.923902 758.741637 653.901871 782.668583 631.847575zM481.422587 654.009318c8.352225 7.27673 18.400069 10.914584 30.138414 10.914584 12.638855 0 23.099091-3.526313 31.377638-10.577916 8.272407-7.049556 12.411681-16.294105 12.411681-27.731598 0-10.837836-4.139274-19.899212-12.411681-27.177989-8.278547-7.272637-18.436908-10.914584-30.477129-10.914584-11.885701 0-22.12081 3.566222-30.698163 10.69355-8.577353 7.127328-12.868075 16.263405-12.868075 27.399023C468.896296 637.603673 473.070362 646.736681 481.422587 654.009318z" /></svg>