<svg class="icon"  fill="#767676" style="width: 1em; height: 1em;vertical-align: middle;overflow: hidden;" viewBox="0 0 1024 1024" version="1.1" xmlns="http://www.w3.org/2000/svg"><path d="M982.951928 1023.921364H39.318077a39.318077 39.318077 0 0 1-39.318077-39.318077v-943.633851a39.318077 39.318077 0 0 1 39.318077-39.318077h466.784211a39.318077 39.318077 0 0 1 0 78.636154H78.636154v864.997697h864.997696V515.302718a39.318077 39.318077 0 0 1 78.636155 0v469.300569a39.318077 39.318077 0 0 1-39.318077 39.318077z" fill="#999999" /><path d="M511.135002 157.272308h-314.544616a39.318077 39.318077 0 0 0 0 78.636155h314.544616a39.318077 39.318077 0 0 0 0-78.636155z" fill="#999999" /><path d="M353.862694 157.272308a39.318077 39.318077 0 0 0-39.318077 39.318078v471.816925a39.318077 39.318077 0 0 0 78.636154 0v-471.816925a39.318077 39.318077 0 0 0-39.318077-39.318078zM904.315773 157.272308h-235.908462a39.318077 39.318077 0 0 0 0 78.636155h235.908462a39.318077 39.318077 0 0 0 0-78.636155zM904.315773 314.544617h-235.908462a39.318077 39.318077 0 0 0 0 78.636154h235.908462a39.318077 39.318077 0 0 0 0-78.636154zM825.679619 471.816925h-157.272308a39.318077 39.318077 0 0 0 0 78.636154h157.272308a39.318077 39.318077 0 0 0 0-78.636154zM825.679619 629.089234h-157.272308a39.318077 39.318077 0 0 0 0 78.636154h157.272308a39.318077 39.318077 0 0 0 0-78.636154zM825.679619 786.361542h-629.089233a39.318077 39.318077 0 0 0 0 78.636154h629.089233a39.318077 39.318077 0 0 0 0-78.636154z" fill="#999999" /></svg>